<svg width="108" height="29" viewBox="0 0 108 29" fill="none" xmlns="http://www.w3.org/2000/svg">
<path d="M53.5995 2.40176L51.6473 5.8131C53.1105 6.65811 54.3467 7.85521 55.2308 9.29094L58.5835 7.2371C57.3512 5.23802 55.6338 3.57539 53.5995 2.40176Z" fill="#FF0808"/>
<path d="M56.7409 14.6153C56.7409 20.2213 52.1951 24.7671 46.589 24.7671C43.1269 24.7671 40.0715 23.0341 38.2407 20.3934L35.4983 23.2962C38.0764 26.5863 42.0862 28.7027 46.589 28.7027C54.3663 28.7027 60.6726 22.3964 60.6726 14.6192C60.6726 14.3923 60.6647 14.1654 60.6569 13.9424L56.7174 13.9033C56.7331 14.1419 56.7448 14.3806 56.7448 14.6192L56.7409 14.6153Z" fill="#88C800"/>
<path d="M55.2308 9.28705C56.1893 10.8362 56.7409 12.6632 56.7409 14.6153H60.6725C60.6725 11.9042 59.9058 9.3692 58.5757 7.22147L55.2308 9.28313V9.28705Z" fill="#FFED00"/>
<path d="M46.5929 4.46344C48.4394 4.46344 50.1724 4.96028 51.663 5.82094L53.5994 2.39786C51.5378 1.2125 49.1436 0.531799 46.5929 0.531799V4.46344Z" fill="white"/>
<path d="M36.4371 14.6153C36.4371 9.00929 40.983 4.46344 46.589 4.46344V0.531799C38.8118 0.531799 32.5055 6.83808 32.5055 14.6153C32.5055 18.1518 33.8082 21.3871 35.9638 23.8596L38.9291 21.2776C37.376 19.4937 36.4371 17.1621 36.4371 14.6153Z" fill="#0094FF"/>
<path d="M105.004 23.8009C104.699 23.8009 104.449 23.8791 104.257 24.0317C103.643 24.4933 102.915 24.8376 102.07 25.0684C101.264 25.2992 100.419 25.4126 99.5391 25.4126C98.3498 25.4126 97.274 25.1231 96.3155 24.5481C95.3962 23.9339 94.782 23.0889 94.4729 22.0169C94.3595 21.5944 94.4925 21.3832 94.8759 21.3832H104.891C105.583 21.3832 106.139 21.1719 106.561 20.7494C107.023 20.3269 107.254 19.6932 107.254 18.8521C107.254 16.7435 106.507 14.9752 105.008 13.559C103.514 12.0998 101.519 11.3722 99.0227 11.3722C96.5268 11.3722 94.3399 12.1585 92.6929 13.7311C91.0812 15.3038 90.2753 17.3185 90.2753 19.7753C90.2753 22.5764 91.0812 24.8023 92.6929 26.4532C94.3047 28.1041 96.5503 28.9296 99.4256 28.9296C100.576 28.9296 101.71 28.7966 102.821 28.5267C103.971 28.2567 105.047 27.7599 106.045 27.0322C106.315 26.8014 106.487 26.5706 106.561 26.3398C106.64 26.109 106.675 25.8782 106.675 25.6474C106.675 25.1466 106.503 24.728 106.158 24.3798C105.814 23.9965 105.431 23.8048 105.008 23.8048L105.004 23.8009ZM94.5316 17.7567V17.698C94.7233 16.8139 95.2593 16.1058 96.1434 15.5698C97.0627 15.0339 98.0251 14.7639 99.0227 14.7639C100.173 14.7639 101.131 15.0886 101.902 15.742C102.708 16.3953 103.111 17.162 103.111 18.0423C103.111 18.2731 102.997 18.3865 102.767 18.3865L94.9972 18.3278C94.692 18.3278 94.516 18.2692 94.4808 18.1557C94.4808 18.0423 94.5003 17.9053 94.5394 17.7528L94.5316 17.7567Z" fill="white"/>
<path d="M11.748 19.2511C10.9812 18.9069 10.1753 18.6565 9.33032 18.5039C8.52443 18.3514 7.79678 18.234 7.14347 18.1597C5.7625 17.968 4.89793 17.7372 4.55367 17.4672C4.24852 17.1621 4.09204 16.8139 4.09204 16.4305C4.09204 15.8946 4.36197 15.5112 4.89793 15.2804C5.47301 15.0104 6.16544 14.8774 6.97133 14.8774C7.66377 14.8774 8.37186 14.9752 9.09951 15.1669C9.86628 15.3195 10.5587 15.5699 11.1729 15.9141C11.4037 16.0276 11.6541 16.0863 11.9201 16.0863C12.417 16.0863 12.8395 15.8946 13.1876 15.5112C13.5319 15.1278 13.704 14.6857 13.704 14.1889C13.704 13.7273 13.4928 13.3243 13.0703 12.9801C12.5343 12.5184 11.7089 12.1351 10.5939 11.8299C9.5181 11.5248 8.36795 11.3683 7.13955 11.3683C5.03094 11.3683 3.34092 11.869 2.0734 12.8627C0.84501 13.8603 0.230813 15.2021 0.230813 16.8921C0.230813 17.9289 0.481186 18.7543 0.978021 19.3685C1.47486 19.9827 2.08905 20.4443 2.82061 20.7495C3.54826 21.0546 4.27982 21.2659 5.00747 21.3832C5.77424 21.4967 6.42756 21.5945 6.96351 21.6727C8.26623 21.8253 9.18949 22.0561 9.72544 22.3652C10.2614 22.6703 10.5313 23.1319 10.5313 23.7461C10.5313 24.3603 10.2418 24.8024 9.66676 25.0684C9.13081 25.3383 8.47749 25.4713 7.71072 25.4713C6.90483 25.4713 6.04026 25.3579 5.12092 25.1271C4.23679 24.8572 3.45046 24.5129 2.76193 24.0904C2.492 23.9378 2.22598 23.8596 1.95604 23.8596C1.45921 23.8596 0.997582 24.0513 0.575076 24.4346C0.191692 24.818 0 25.2601 0 25.7569C0 26.2538 0.230813 26.7154 0.692439 27.1379C1.57657 27.7521 2.5898 28.1942 3.74387 28.4602C4.89402 28.7653 6.02852 28.9218 7.13955 28.9218C8.40707 28.9218 9.57678 28.7301 10.6487 28.3467C11.7597 27.9633 12.6634 27.3883 13.3519 26.6215C14.0444 25.8156 14.3886 24.7985 14.3886 23.5701C14.3886 22.3417 14.1383 21.4419 13.6414 20.7495C13.1446 20.057 12.5108 19.5602 11.7441 19.255L11.748 19.2511Z" fill="white"/>
<path d="M24.4388 11.3683C23.5547 11.3683 22.5962 11.56 21.5595 11.9434C20.5619 12.3267 19.756 12.8431 19.1418 13.4964V5.26934C19.1418 4.61602 18.9306 4.13874 18.5081 3.82969C18.1247 3.48543 17.6826 3.31329 17.1858 3.31329C16.6889 3.31329 16.2273 3.48543 15.8048 3.82969C15.4214 4.13483 15.2297 4.61602 15.2297 5.26934V27.1379C15.2297 27.713 15.4214 28.155 15.8048 28.4602C16.2273 28.7653 16.6889 28.9218 17.1858 28.9218C17.6826 28.9218 18.1247 28.7692 18.5081 28.4602C18.9306 28.155 19.1418 27.713 19.1418 27.1379V19.8301C19.1418 18.6017 19.4665 17.4907 20.1198 16.4931C20.8123 15.4564 21.982 14.94 23.629 14.94C24.8574 14.94 25.8354 15.343 26.563 16.1488C27.3298 16.9547 27.7132 18.2027 27.7132 19.8888V27.1418C27.7132 27.7169 27.9049 28.1589 28.2883 28.4641C28.7108 28.7692 29.1724 28.9257 29.6692 28.9257C30.1309 28.9257 30.569 28.7731 30.9915 28.4641C31.414 28.1589 31.6253 27.7169 31.6253 27.1418V19.5445C31.6253 16.8569 30.9172 14.8266 29.4971 13.4456C28.1161 12.0646 26.4261 11.3722 24.431 11.3722L24.4388 11.3683Z" fill="white"/>
<path d="M82.5724 11.3683C81.0389 11.3683 79.7322 11.6734 78.6603 12.2876C77.6236 12.8627 76.8764 13.5551 76.4148 14.361C75.2255 12.3659 73.3829 11.3683 70.8909 11.3683C70.0068 11.3683 69.107 11.56 68.1877 11.9434C67.2683 12.3268 66.5172 12.8275 65.9421 13.4378C65.9421 13.2461 65.903 13.0348 65.8287 12.804C65.6761 12.3815 65.4257 12.0959 65.0815 11.9395C64.7372 11.7478 64.3734 11.65 63.9861 11.65C63.4892 11.65 63.0276 11.8221 62.6051 12.1664C62.2217 12.4715 62.03 12.9527 62.03 13.606V27.1301C62.03 27.7052 62.2217 28.1472 62.6051 28.4524C63.0276 28.7575 63.4892 28.914 63.9861 28.914C64.4829 28.914 64.925 28.7614 65.3084 28.4524C65.7309 28.1472 65.9421 27.7052 65.9421 27.1301V19.8223C65.9421 18.5939 66.2121 17.4829 66.748 16.4853C67.3231 15.4486 68.438 14.9322 70.085 14.9322C71.196 14.9322 72.0802 15.3351 72.7335 16.141C73.3868 16.9469 73.7115 18.1949 73.7115 19.881V27.134C73.7115 27.7091 73.9032 28.1511 74.2866 28.4563C74.7091 28.7614 75.1707 28.9179 75.6676 28.9179C76.1292 28.9179 76.5673 28.7653 76.9898 28.4563C77.4123 28.1511 77.6236 27.7091 77.6236 27.134V18.6174C77.7762 17.6198 78.1596 16.7552 78.7738 16.0276C79.3879 15.2999 80.3855 14.9322 81.7665 14.9322C84.2233 14.9322 85.4517 16.5831 85.4517 19.881V27.134C85.4517 27.7091 85.6434 28.1511 86.0268 28.4563C86.4493 28.7614 86.9109 28.9179 87.4077 28.9179C87.8694 28.9179 88.3075 28.7653 88.73 28.4563C89.1525 28.1472 89.3638 27.7091 89.3638 27.134V19.5367C89.3638 16.8491 88.7496 14.8188 87.5212 13.4378C86.2928 12.0568 84.6419 11.3644 82.5724 11.3644V11.3683Z" fill="white"/>
</svg>
