<svg width="275" height="73" viewBox="0 0 275 73" fill="none" xmlns="http://www.w3.org/2000/svg">
<g clip-path="url(#clip0_37_7)">
<path d="M136.99 4.78L132 13.5C135.74 15.66 138.9 18.72 141.16 22.39L149.73 17.14C146.58 12.03 142.19 7.78 136.99 4.78Z" fill="#FF0808"/>
<path d="M145.02 36C145.02 50.33 133.4 61.95 119.07 61.95C110.22 61.95 102.41 57.52 97.73 50.77L90.72 58.19C97.31 66.6 107.56 72.01 119.07 72.01C138.95 72.01 155.07 55.89 155.07 36.01C155.07 35.43 155.05 34.85 155.03 34.28L144.96 34.18C145 34.79 145.03 35.4 145.03 36.01L145.02 36Z" fill="#88C800"/>
<path d="M141.16 22.38C143.61 26.34 145.02 31.01 145.02 36H155.07C155.07 29.07 153.11 22.59 149.71 17.1L141.16 22.37V22.38Z" fill="#FFED00"/>
<path d="M119.08 10.05C123.8 10.05 128.23 11.32 132.04 13.52L136.99 4.77C131.72 1.74 125.6 0 119.08 0V10.05Z" fill="#0C0900"/>
<path d="M93.1199 36C93.1199 21.67 104.74 10.05 119.07 10.05V0C99.1899 0 83.0699 16.12 83.0699 36C83.0699 45.04 86.4 53.31 91.91 59.63L99.4899 53.03C95.5199 48.47 93.1199 42.51 93.1199 36Z" fill="#0094FF"/>
<path d="M268.39 59.48C267.61 59.48 266.97 59.68 266.48 60.07C264.91 61.25 263.05 62.13 260.89 62.72C258.83 63.31 256.67 63.6 254.42 63.6C251.38 63.6 248.63 62.86 246.18 61.39C243.83 59.82 242.26 57.66 241.47 54.92C241.18 53.84 241.52 53.3 242.5 53.3H268.1C269.87 53.3 271.29 52.76 272.37 51.68C273.55 50.6 274.14 48.98 274.14 46.83C274.14 41.44 272.23 36.92 268.4 33.3C264.58 29.57 259.48 27.71 253.1 27.71C246.72 27.71 241.13 29.72 236.92 33.74C232.8 37.76 230.74 42.91 230.74 49.19C230.74 56.35 232.8 62.04 236.92 66.26C241.04 70.48 246.78 72.59 254.13 72.59C257.07 72.59 259.97 72.25 262.81 71.56C265.75 70.87 268.5 69.6 271.05 67.74C271.74 67.15 272.18 66.56 272.37 65.97C272.57 65.38 272.66 64.79 272.66 64.2C272.66 62.92 272.22 61.85 271.34 60.96C270.46 59.98 269.48 59.49 268.4 59.49L268.39 59.48ZM241.62 44.03V43.88C242.11 41.62 243.48 39.81 245.74 38.44C248.09 37.07 250.55 36.38 253.1 36.38C256.04 36.38 258.49 37.21 260.46 38.88C262.52 40.55 263.55 42.51 263.55 44.76C263.55 45.35 263.26 45.64 262.67 45.64L242.81 45.49C242.03 45.49 241.58 45.34 241.49 45.05C241.49 44.76 241.54 44.41 241.64 44.02L241.62 44.03Z" fill="black"/>
<path d="M30.01 47.85C28.05 46.97 25.99 46.33 23.83 45.94C21.77 45.55 19.91 45.25 18.24 45.06C14.71 44.57 12.5 43.98 11.62 43.29C10.84 42.51 10.44 41.62 10.44 40.64C10.44 39.27 11.13 38.29 12.5 37.7C13.97 37.01 15.74 36.67 17.8 36.67C19.57 36.67 21.38 36.92 23.24 37.41C25.2 37.8 26.97 38.44 28.54 39.32C29.13 39.61 29.77 39.76 30.45 39.76C31.72 39.76 32.8 39.27 33.69 38.29C34.57 37.31 35.01 36.18 35.01 34.91C35.01 33.73 34.47 32.7 33.39 31.82C32.02 30.64 29.91 29.66 27.06 28.88C24.31 28.1 21.37 27.7 18.23 27.7C12.84 27.7 8.51998 28.98 5.27998 31.52C2.13998 34.07 0.56998 37.5 0.56998 41.82C0.56998 44.47 1.20998 46.58 2.47998 48.15C3.74998 49.72 5.31998 50.9 7.18998 51.68C9.04998 52.46 10.92 53 12.78 53.3C14.74 53.59 16.41 53.84 17.78 54.04C21.11 54.43 23.47 55.02 24.84 55.81C26.21 56.59 26.9 57.77 26.9 59.34C26.9 60.91 26.16 62.04 24.69 62.72C23.32 63.41 21.65 63.75 19.69 63.75C17.63 63.75 15.42 63.46 13.07 62.87C10.81 62.18 8.79998 61.3 7.03998 60.22C6.34998 59.83 5.66998 59.63 4.97998 59.63C3.70998 59.63 2.52998 60.12 1.44998 61.1C0.46998 62.08 -0.0200195 63.21 -0.0200195 64.48C-0.0200195 65.75 0.569981 66.93 1.74998 68.01C4.00998 69.58 6.59998 70.71 9.54998 71.39C12.49 72.17 15.39 72.57 18.23 72.57C21.47 72.57 24.46 72.08 27.2 71.1C30.04 70.12 32.35 68.65 34.11 66.69C35.88 64.63 36.76 62.03 36.76 58.89C36.76 55.75 36.12 53.45 34.85 51.68C33.58 49.91 31.96 48.64 30 47.86L30.01 47.85Z" fill="black"/>
<path d="M62.45 27.7C60.19 27.7 57.74 28.19 55.09 29.17C52.54 30.15 50.48 31.47 48.91 33.14V12.11C48.91 10.44 48.37 9.21999 47.29 8.42999C46.31 7.54999 45.18 7.10999 43.91 7.10999C42.64 7.10999 41.46 7.54999 40.38 8.42999C39.4 9.20999 38.91 10.44 38.91 12.11V68.01C38.91 69.48 39.4 70.61 40.38 71.39C41.46 72.17 42.64 72.57 43.91 72.57C45.18 72.57 46.31 72.18 47.29 71.39C48.37 70.61 48.91 69.48 48.91 68.01V49.33C48.91 46.19 49.74 43.35 51.41 40.8C53.18 38.15 56.17 36.83 60.38 36.83C63.52 36.83 66.02 37.86 67.88 39.92C69.84 41.98 70.82 45.17 70.82 49.48V68.02C70.82 69.49 71.31 70.62 72.29 71.4C73.37 72.18 74.55 72.58 75.82 72.58C77 72.58 78.12 72.19 79.2 71.4C80.28 70.62 80.82 69.49 80.82 68.02V48.6C80.82 41.73 79.01 36.54 75.38 33.01C71.85 29.48 67.53 27.71 62.43 27.71L62.45 27.7Z" fill="black"/>
<path d="M211.05 27.7C207.13 27.7 203.79 28.48 201.05 30.05C198.4 31.52 196.49 33.29 195.31 35.35C192.27 30.25 187.56 27.7 181.19 27.7C178.93 27.7 176.63 28.19 174.28 29.17C171.93 30.15 170.01 31.43 168.54 32.99C168.54 32.5 168.44 31.96 168.25 31.37C167.86 30.29 167.22 29.56 166.34 29.16C165.46 28.67 164.53 28.42 163.54 28.42C162.27 28.42 161.09 28.86 160.01 29.74C159.03 30.52 158.54 31.75 158.54 33.42V67.99C158.54 69.46 159.03 70.59 160.01 71.37C161.09 72.15 162.27 72.55 163.54 72.55C164.81 72.55 165.94 72.16 166.92 71.37C168 70.59 168.54 69.46 168.54 67.99V49.31C168.54 46.17 169.23 43.33 170.6 40.78C172.07 38.13 174.92 36.81 179.13 36.81C181.97 36.81 184.23 37.84 185.9 39.9C187.57 41.96 188.4 45.15 188.4 49.46V68C188.4 69.47 188.89 70.6 189.87 71.38C190.95 72.16 192.13 72.56 193.4 72.56C194.58 72.56 195.7 72.17 196.78 71.38C197.86 70.6 198.4 69.47 198.4 68V46.23C198.79 43.68 199.77 41.47 201.34 39.61C202.91 37.75 205.46 36.81 208.99 36.81C215.27 36.81 218.41 41.03 218.41 49.46V68C218.41 69.47 218.9 70.6 219.88 71.38C220.96 72.16 222.14 72.56 223.41 72.56C224.59 72.56 225.71 72.17 226.79 71.38C227.87 70.59 228.41 69.47 228.41 68V48.58C228.41 41.71 226.84 36.52 223.7 32.99C220.56 29.46 216.34 27.69 211.05 27.69V27.7Z" fill="black"/>
</g>
<defs>
<clipPath id="clip0_37_7">
<rect width="274.12" height="72.57" fill="white"/>
</clipPath>
</defs>
</svg>
