<svg width="148" height="39" viewBox="0 0 148 39" fill="none" xmlns="http://www.w3.org/2000/svg">
<g clip-path="url(#clip0_117_155)">
<path d="M73.9622 2.56885L71.2681 7.25508C73.2873 8.41589 74.9934 10.0604 76.2136 12.0327L80.8407 9.21126C79.1399 6.46509 76.7697 4.18108 73.9622 2.56885Z" fill="#FF0808"/>
<path d="M78.2977 19.3467C78.2977 27.0479 72.0239 33.2926 64.287 33.2926C59.5088 33.2926 55.2921 30.9119 52.7654 27.2843L48.9806 31.2719C52.5386 35.7916 58.0727 38.699 64.287 38.699C75.0204 38.699 83.7238 30.0359 83.7238 19.3521C83.7238 19.0404 83.713 18.7287 83.7022 18.4224L78.2653 18.3687C78.2869 18.6965 78.3031 19.0243 78.3031 19.3521L78.2977 19.3467Z" fill="#88C800"/>
<path d="M76.2136 12.0275C77.5364 14.1556 78.2977 16.6653 78.2977 19.347H83.7238C83.7238 15.6228 82.6655 12.1403 80.8299 9.18994L76.2136 12.0221V12.0275Z" fill="#FFED00"/>
<path d="M64.2925 5.40099C66.8409 5.40099 69.2326 6.08351 71.2897 7.26581L73.9623 2.56346C71.1169 0.935097 67.8127 0 64.2925 0V5.40099Z" fill="white"/>
<path d="M50.2764 19.3468C50.2764 11.6457 56.5502 5.40099 64.2871 5.40099V0C53.5537 0 44.8503 8.66308 44.8503 19.3468C44.8503 24.205 46.6482 28.6494 49.6231 32.0459L53.7157 28.499C51.5722 26.0484 50.2764 22.8454 50.2764 19.3468Z" fill="#0094FF"/>
<path d="M144.906 31.9652C144.485 31.9652 144.14 32.0727 143.875 32.2823C143.027 32.9164 142.023 33.3893 140.857 33.7064C139.745 34.0235 138.579 34.1793 137.364 34.1793C135.722 34.1793 134.238 33.7816 132.915 32.9916C131.646 32.1479 130.798 30.9871 130.372 29.5146C130.215 28.9342 130.399 28.644 130.928 28.644H144.75C145.705 28.644 146.472 28.3538 147.055 27.7734C147.692 27.193 148.011 26.3224 148.011 25.1669C148.011 22.2703 146.98 19.8412 144.912 17.8957C142.849 15.8912 140.096 14.8916 136.651 14.8916C133.206 14.8916 130.188 15.9718 127.915 18.1322C125.691 20.2926 124.579 23.0603 124.579 26.4352C124.579 30.2831 125.691 33.341 127.915 35.6088C130.14 37.8767 133.239 39.0107 137.207 39.0107C138.795 39.0107 140.36 38.8279 141.894 38.4571C143.481 38.0863 144.966 37.4038 146.342 36.4042C146.715 36.0871 146.953 35.7701 147.055 35.453C147.163 35.1359 147.212 34.8188 147.212 34.5018C147.212 33.8139 146.974 33.2389 146.499 32.7606C146.024 32.2339 145.495 31.9706 144.912 31.9706L144.906 31.9652ZM130.453 23.6622V23.5816C130.718 22.367 131.457 21.3943 132.677 20.658C133.946 19.9218 135.274 19.551 136.651 19.551C138.238 19.551 139.561 19.997 140.625 20.8945C141.737 21.792 142.293 22.8453 142.293 24.0545C142.293 24.3716 142.137 24.5274 141.818 24.5274L131.095 24.4468C130.674 24.4468 130.431 24.3662 130.383 24.2103C130.383 24.0545 130.41 23.8664 130.464 23.6568L130.453 23.6622Z" fill="white"/>
<path d="M16.2029 25.7151C15.1446 25.2422 14.0324 24.8982 12.8662 24.6886C11.754 24.479 10.7498 24.3178 9.84813 24.2157C7.94225 23.9524 6.74905 23.6353 6.27393 23.2645C5.8528 22.8453 5.63683 22.367 5.63683 21.8403C5.63683 21.1041 6.00937 20.5774 6.74905 20.2604C7.54271 19.8895 8.49835 19.7068 9.61057 19.7068C10.5662 19.7068 11.5434 19.8412 12.5477 20.1045C13.6059 20.3141 14.5615 20.658 15.4092 21.131C15.7277 21.2868 16.0733 21.3674 16.4404 21.3674C17.1261 21.3674 17.7092 21.1041 18.1897 20.5774C18.6649 20.0508 18.9024 19.4435 18.9024 18.761C18.9024 18.1268 18.6109 17.5733 18.0278 17.1004C17.2881 16.4662 16.1489 15.9396 14.6101 15.5204C13.1254 15.1012 11.538 14.8862 9.84273 14.8862C6.93262 14.8862 4.60021 15.5741 2.8509 16.9391C1.15558 18.3095 0.307927 20.1529 0.307927 22.4745C0.307927 23.8986 0.653469 25.0326 1.33915 25.8763C2.02484 26.72 2.8725 27.3542 3.88213 27.7734C4.88636 28.1926 5.89599 28.4828 6.90022 28.644C7.95845 28.7998 8.86009 28.9342 9.59977 29.0417C11.3977 29.2513 12.6719 29.5683 13.4115 29.9929C14.1512 30.4121 14.5237 31.0462 14.5237 31.89C14.5237 32.7337 14.1242 33.341 13.3305 33.7064C12.5909 34.0772 11.6892 34.2599 10.631 34.2599C9.51878 34.2599 8.32558 34.1041 7.0568 33.787C5.8366 33.4162 4.75138 32.9433 3.80114 32.3629C3.4286 32.1533 3.06147 32.0458 2.68893 32.0458C2.00324 32.0458 1.36615 32.3091 0.783047 32.8358C0.253936 33.3625 -0.0106201 33.9697 -0.0106201 34.6523C-0.0106201 35.3348 0.307927 35.9689 0.94502 36.5493C2.16522 37.3931 3.56358 38.0003 5.15631 38.3658C6.74365 38.7849 8.30939 38.9999 9.84273 38.9999C11.592 38.9999 13.2064 38.7366 14.6857 38.2099C16.2191 37.6833 17.4663 36.8933 18.4165 35.8399C19.3721 34.7329 19.8473 33.3356 19.8473 31.6481C19.8473 29.9606 19.5017 28.7246 18.816 27.7734C18.1303 26.8222 17.2557 26.1396 16.1975 25.7205L16.2029 25.7151Z" fill="white"/>
<path d="M33.7174 14.8861C32.4972 14.8861 31.1744 15.1494 29.7437 15.6761C28.3669 16.2028 27.2547 16.9122 26.407 17.8096V6.50786C26.407 5.61038 26.1155 4.95474 25.5324 4.53018C25.0033 4.05726 24.3932 3.8208 23.7075 3.8208C23.0218 3.8208 22.3847 4.05726 21.8016 4.53018C21.2725 4.94937 21.0079 5.61038 21.0079 6.50786V36.5492C21.0079 37.3392 21.2725 37.9465 21.8016 38.3657C22.3847 38.7848 23.0218 38.9998 23.7075 38.9998C24.3932 38.9998 25.0033 38.7902 25.5324 38.3657C26.1155 37.9465 26.407 37.3392 26.407 36.5492V26.5103C26.407 24.8229 26.8552 23.2966 27.7568 21.9262C28.7124 20.5021 30.3268 19.7927 32.5998 19.7927C34.2951 19.7927 35.6449 20.3462 36.6491 21.4533C37.7073 22.5604 38.2364 24.2747 38.2364 26.591V36.5546C38.2364 37.3446 38.501 37.9518 39.0301 38.371C39.6132 38.7902 40.2503 39.0052 40.936 39.0052C41.5731 39.0052 42.1778 38.7956 42.7609 38.371C43.344 37.9518 43.6355 37.3446 43.6355 36.5546V26.118C43.6355 22.426 42.6583 19.6368 40.6984 17.7398C38.7926 15.8427 36.4601 14.8915 33.7066 14.8915L33.7174 14.8861Z" fill="white"/>
<path d="M113.948 14.8862C111.831 14.8862 110.028 15.3054 108.549 16.1492C107.118 16.9391 106.087 17.8904 105.45 18.9974C103.808 16.2566 101.265 14.8862 97.8262 14.8862C96.6061 14.8862 95.3643 15.1496 94.0955 15.6762C92.8267 16.2029 91.7901 16.8908 90.9964 17.7291C90.9964 17.4658 90.9424 17.1756 90.8398 16.8585C90.6293 16.2781 90.2837 15.8858 89.8086 15.6709C89.3335 15.4075 88.8313 15.2732 88.2968 15.2732C87.6112 15.2732 86.9741 15.5096 86.391 15.9826C85.8618 16.4017 85.5973 17.0628 85.5973 17.9602V36.5386C85.5973 37.3286 85.8618 37.9358 86.391 38.355C86.9741 38.7742 87.6112 38.9892 88.2968 38.9892C88.9825 38.9892 89.5926 38.7796 90.1217 38.355C90.7048 37.9358 90.9964 37.3286 90.9964 36.5386V26.4997C90.9964 24.8122 91.3689 23.286 92.1086 21.9156C92.9023 20.4914 94.441 19.7821 96.714 19.7821C98.2474 19.7821 99.4676 20.3356 100.369 21.4427C101.271 22.5497 101.719 24.2641 101.719 26.5803V36.5439C101.719 37.3339 101.984 37.9412 102.513 38.3604C103.096 38.7796 103.733 38.9945 104.419 38.9945C105.056 38.9945 105.66 38.7849 106.243 38.3604C106.827 37.9412 107.118 37.3339 107.118 36.5439V24.8445C107.329 23.4741 107.858 22.2864 108.705 21.2868C109.553 20.2872 110.93 19.7821 112.836 19.7821C116.226 19.7821 117.922 22.0499 117.922 26.5803V36.5439C117.922 37.3339 118.186 37.9412 118.715 38.3604C119.298 38.7796 119.936 38.9945 120.621 38.9945C121.258 38.9945 121.863 38.7849 122.446 38.3604C123.029 37.9358 123.321 37.3339 123.321 36.5439V26.1074C123.321 22.4154 122.473 19.6262 120.778 17.7291C119.082 15.8321 116.804 14.8809 113.948 14.8809V14.8862Z" fill="white"/>
<path d="M59.3739 20.9001C61.1302 20.9001 62.554 19.4829 62.554 17.7347C62.554 15.9865 61.1302 14.5693 59.3739 14.5693C57.6176 14.5693 56.1938 15.9865 56.1938 17.7347C56.1938 19.4829 57.6176 20.9001 59.3739 20.9001Z" fill="#0094FF"/>
<path d="M69.2056 20.9001C70.9619 20.9001 72.3857 19.4829 72.3857 17.7347C72.3857 15.9865 70.9619 14.5693 69.2056 14.5693C67.4493 14.5693 66.0255 15.9865 66.0255 17.7347C66.0255 19.4829 67.4493 20.9001 69.2056 20.9001Z" fill="#88C800"/>
</g>
<defs>
<clipPath id="clip0_117_155">
<rect width="148" height="39" fill="white"/>
</clipPath>
</defs>
</svg>
