<svg width="40" height="41" viewBox="0 0 40 41" fill="none" xmlns="http://www.w3.org/2000/svg">
<g clip-path="url(#clip0_234_3)">
<path d="M39.947 38.4608L35.0595 14.7025C34.8654 13.7259 34.0008 13.0156 33.0128 13.0156H7.12833C6.14024 13.0156 5.27566 13.7081 5.08157 14.6847L0.0528979 38.4431C-0.229414 39.7571 0.776321 41 2.09966 41H37.9003C39.2236 41 40.2293 39.7748 39.947 38.4608ZM13.0039 19.3902C11.6982 19.3902 10.6396 18.3248 10.6396 17.0109C10.6396 15.6969 11.6982 14.6315 13.0039 14.6315C14.3096 14.6315 15.3683 15.6969 15.3683 17.0109C15.3683 18.3248 14.3096 19.3902 13.0039 19.3902ZM27.4371 19.3902C26.1314 19.3902 25.0727 18.3248 25.0727 17.0109C25.0727 15.6969 26.1314 14.6315 27.4371 14.6315C28.7428 14.6315 29.8015 15.6969 29.8015 17.0109C29.8015 18.3248 28.7428 19.3902 27.4371 19.3902Z" fill="#FF0000" fill-opacity="0.8"/>
<path d="M26.6254 11.666C26.6254 11.666 26.5196 11.666 26.4843 11.666C25.8667 11.5772 25.4256 11.009 25.4962 10.3876C25.4962 10.352 25.9902 6.17924 23.9611 3.85313C23.0436 2.80549 21.7379 2.29055 19.9911 2.29055C18.2443 2.29055 17.0092 2.78773 16.1446 3.81761C14.2214 6.10822 14.9272 10.2988 14.9272 10.3343C15.033 10.9558 14.6272 11.5417 14.0096 11.666C13.3921 11.7726 12.8098 11.3642 12.6863 10.7427C12.651 10.5296 11.7864 5.48673 14.3978 2.36157C15.7035 0.798991 17.5738 0.0177002 19.9911 0.0177002C22.4084 0.0177002 24.314 0.798991 25.6726 2.36157C28.3899 5.46898 27.7723 10.4763 27.7547 10.6894C27.6841 11.2576 27.1901 11.6838 26.6254 11.6838V11.666Z" fill="#FF0000" fill-opacity="0.8"/>
</g>
<defs>
<clipPath id="clip0_234_3">
<rect width="40" height="41" fill="white"/>
</clipPath>
</defs>
</svg>
