<svg width="40" height="40" viewBox="0 0 40 40" fill="none" xmlns="http://www.w3.org/2000/svg">
<path d="M39.9907 18.3482L38.1437 1.49915C38.062 0.765868 37.4409 0.195541 36.6891 0.195541L19.6908 0C19.2658 0 18.8572 0.179246 18.5793 0.488852L0.387886 20.4829C-0.167828 21.0858 -0.118794 22.0146 0.485953 22.5687L19.3475 39.6133C19.9523 40.1673 20.8839 40.1184 21.4396 39.5155L39.6148 19.5215C39.8926 19.2119 40.0397 18.7882 39.9907 18.3645V18.3482ZM29.1379 9.93999C28.1899 9.07635 28.1245 7.62609 28.9745 6.68097C29.8244 5.73586 31.2954 5.67068 32.2434 6.51802C33.1914 7.36537 33.2567 8.83192 32.4068 9.77704C31.5569 10.7221 30.0859 10.7873 29.1379 9.93999Z" fill="#88C800" fill-opacity="0.8"/>
</svg>
