<svg width="41" height="45" viewBox="0 0 41 45" fill="none" xmlns="http://www.w3.org/2000/svg">
<path d="M28.5639 28.3942C24.1102 28.3942 20.5098 31.9946 20.5098 36.4483C20.5098 40.9019 24.1102 44.5024 28.5639 44.5024C33.0175 44.5024 36.618 40.9019 36.618 36.4483C36.618 31.9946 33.0175 28.3942 28.5639 28.3942ZM28.5639 38.8031C27.267 38.8031 26.2091 37.7451 26.2091 36.4483C26.2091 35.1514 27.267 34.0935 28.5639 34.0935C29.8607 34.0935 30.9187 35.1514 30.9187 36.4483C30.9187 37.7451 29.8607 38.8031 28.5639 38.8031Z" fill="#0094FF" fill-opacity="0.8"/>
<path d="M36.9579 1.80661L0 38.7645L4.04208 42.8066L41 5.84869L36.9579 1.80661Z" fill="#0094FF" fill-opacity="0.8"/>
<path d="M12.456 0C8.00232 0 4.40186 3.60046 4.40186 8.05411C4.40186 12.5078 8.00232 16.1082 12.456 16.1082C16.9096 16.1082 20.5101 12.5078 20.5101 8.05411C20.5101 3.60046 16.8926 0 12.456 0ZM12.456 10.4089C11.1591 10.4089 10.1012 9.35096 10.1012 8.05411C10.1012 6.75726 11.1591 5.69931 12.456 5.69931C13.7528 5.69931 14.8108 6.75726 14.8108 8.05411C14.8108 9.35096 13.7528 10.4089 12.456 10.4089Z" fill="#0094FF" fill-opacity="0.8"/>
</svg>
